<svg id="Warstwa_2" data-name="Warstwa 2" xmlns="http://www.w3.org/2000/svg" xmlns:xlink="http://www.w3.org/1999/xlink" viewBox="0 0 289.05 364.04">
  <defs>
    <style>
      .Belgium {
        fill: #ffec00;
      }
      .Netherlands {
        fill: #ff7900;
      }
      .Luxembourg {
        fill: #00b7ff;
      }
    </style>
  </defs>
  <g id="Warstwa_2-2" data-name="Warstwa 2">
    <polygon id="Luxembourg" class="Luxembourg" points="161 315.04 175 333.04 177 353.04 202 364.04 213.12 339.54 193 298.04 161 315.04"/>
    <polygon id="Belgium" class="Belgium" points="0 175.04 10 210.04 43.47 210.04 43.47 241.15 67 260.04 89 267.04 75 288.04 83.71 288.04 101 278.04 106 280.04 99 307.04 130 328.04 142 349.04 177 353.04 175 333.04 161 315.04 193 298.04 213.12 285.62 195 251.04 196 241.04 165 228.04 176 206.04 168 184.04 161 175.04 138 184.04 129 164.04 93 168.04 60 155.04 30 168.04 0 175.04"/>
    <polygon id="Netherlands" class="Netherlands" points="93 168.04 76.5 141.54 106.56 129.39 127.5 102.54 146.5 66.54 156.5 47.54 161 29.15 170.5 40.54 182.5 25.54 184.5 40.54 192.5 54.54 192.5 65.39 176.5 66.54 171.5 67.54 181.5 83.54 192.5 83.74 207.5 68.54 215.5 41.54 201.5 34.54 206.5 14.54 242.5 .54 263.5 8.54 266.5 23.54 279.5 44.54 288.5 62.54 256.5 145.54 222.5 144.54 207.5 147.54 208.5 165.54 217.5 186.54 216.5 206.54 196.5 216.54 196 241.04 165 228.04 176 206.04 161 175.04 138 184.04 129 164.04 93 168.04"/>
  </g>
</svg>